{
  "tracks": [
    {
      "side": "right",
      "notes": [
        {
          "midi": 78,
          "time": 6.85712,
          "velocity": 0.5039370078740157,
          "duration": 0.20178504166666755
        },
        {
          "midi": 76,
          "time": 7.071405,
          "velocity": 0.5039370078740157,
          "duration": 0.20178504166666666
        },
        {
          "midi": 71,
          "time": 7.28569,
          "velocity": 0.5039370078740157,
          "duration": 2.0339217916666668
        },
        {
          "midi": 76,
          "time": 9.42854,
          "velocity": 0.5039370078740157,
          "duration": 0.4267842916666673
        },
        {
          "midi": 79,
          "time": 9.85711,
          "velocity": 0.5039370078740157,
          "duration": 0.4267842916666673
        },
        {
          "midi": 81,
          "time": 10.28568,
          "velocity": 0.5039370078740157,
          "duration": 0.8553542916666679
        },
        {
          "midi": 76,
          "time": 11.14282,
          "velocity": 0.5039370078740157,
          "duration": 2.4410632916666657
        },
        {
          "midi": 79,
          "time": 13.71424,
          "velocity": 0.5039370078740157,
          "duration": 1.7124942916666654
        },
        {
          "midi": 78,
          "time": 15.42852,
          "velocity": 0.5039370078740157,
          "duration": 0.42678429166666554
        },
        {
          "midi": 79,
          "time": 15.85709,
          "velocity": 0.5039370078740157,
          "duration": 0.4267842916666673
        },
        {
          "midi": 81,
          "time": 16.28566,
          "velocity": 0.5039370078740157,
          "duration": 0.42678429166666376
        },
        {
          "midi": 74,
          "time": 16.71423,
          "velocity": 0.5039370078740157,
          "duration": 0.42678429166666376
        },
        {
          "midi": 74,
          "time": 17.1428,
          "velocity": 0.5039370078740157,
          "duration": 1.7124942916666654
        },
        {
          "midi": 79,
          "time": 17.255299625000003,
          "velocity": 0.5039370078740157,
          "duration": 1.5982089583333305
        },
        {
          "midi": 83,
          "time": 17.369584958333334,
          "velocity": 0.5039370078740157,
          "duration": 1.4839236249999992
        },
        {
          "midi": 74,
          "time": 18.85708,
          "velocity": 0.5039370078740157,
          "duration": 1.7124942916666654
        },
        {
          "midi": 78,
          "time": 18.969579625,
          "velocity": 0.5039370078740157,
          "duration": 1.598208958333334
        },
        {
          "midi": 81,
          "time": 19.083864958333333,
          "velocity": 0.5039370078740157,
          "duration": 1.4839236250000027
        },
        {
          "midi": 78,
          "time": 20.57136,
          "velocity": 0.5039370078740157,
          "duration": 0.20178504166666755
        },
        {
          "midi": 76,
          "time": 20.785645,
          "velocity": 0.5039370078740157,
          "duration": 0.20178504166666755
        },
        {
          "midi": 71,
          "time": 20.99993,
          "velocity": 0.5039370078740157,
          "duration": 2.0339217916666676
        },
        {
          "midi": 76,
          "time": 23.142780000000002,
          "velocity": 0.5039370078740157,
          "duration": 0.42678429166666376
        },
        {
          "midi": 79,
          "time": 23.57135,
          "velocity": 0.5039370078740157,
          "duration": 0.4267842916666673
        },
        {
          "midi": 81,
          "time": 23.99992,
          "velocity": 0.5039370078740157,
          "duration": 0.8553542916666679
        },
        {
          "midi": 76,
          "time": 24.85706,
          "velocity": 0.5039370078740157,
          "duration": 2.4410632916666657
        },
        {
          "midi": 79,
          "time": 27.42848,
          "velocity": 0.5039370078740157,
          "duration": 1.712494291666669
        },
        {
          "midi": 78,
          "time": 29.14276,
          "velocity": 0.5039370078740157,
          "duration": 0.42678429166667087
        },
        {
          "midi": 79,
          "time": 29.57133,
          "velocity": 0.5039370078740157,
          "duration": 0.4267842916666673
        },
        {
          "midi": 81,
          "time": 29.9999,
          "velocity": 0.5039370078740157,
          "duration": 0.4267842916666673
        },
        {
          "midi": 74,
          "time": 30.42847,
          "velocity": 0.5039370078740157,
          "duration": 0.4267842916666673
        },
        {
          "midi": 76,
          "time": 30.85704,
          "velocity": 0.5039370078740157,
          "duration": 3.2553462916666653
        },
        {
          "midi": 78,
          "time": 37.71416,
          "velocity": 0.5039370078740157,
          "duration": 0.20178504166666755
        },
        {
          "midi": 76,
          "time": 37.928445,
          "velocity": 0.5039370078740157,
          "duration": 0.20178504166666045
        },
        {
          "midi": 71,
          "time": 38.14273,
          "velocity": 0.5039370078740157,
          "duration": 2.033921791666671
        },
        {
          "midi": 76,
          "time": 40.28558,
          "velocity": 0.5039370078740157,
          "duration": 0.42678429166666376
        },
        {
          "midi": 79,
          "time": 40.714150000000004,
          "velocity": 0.5039370078740157,
          "duration": 0.42678429166666376
        },
        {
          "midi": 81,
          "time": 41.14272,
          "velocity": 0.5039370078740157,
          "duration": 0.8553542916666714
        },
        {
          "midi": 76,
          "time": 41.99986,
          "velocity": 0.5039370078740157,
          "duration": 2.441063291666673
        },
        {
          "midi": 79,
          "time": 44.57128,
          "velocity": 0.5039370078740157,
          "duration": 1.7124942916666654
        },
        {
          "midi": 78,
          "time": 46.285560000000004,
          "velocity": 0.5039370078740157,
          "duration": 0.42678429166666376
        },
        {
          "midi": 79,
          "time": 46.71413,
          "velocity": 0.5039370078740157,
          "duration": 0.42678429166667087
        },
        {
          "midi": 81,
          "time": 47.1427,
          "velocity": 0.5039370078740157,
          "duration": 0.42678429166667087
        },
        {
          "midi": 74,
          "time": 47.57127,
          "velocity": 0.5039370078740157,
          "duration": 0.42678429166667087
        },
        {
          "midi": 74,
          "time": 47.99984,
          "velocity": 0.5039370078740157,
          "duration": 1.7124942916666726
        },
        {
          "midi": 79,
          "time": 48.112339625000004,
          "velocity": 0.5039370078740157,
          "duration": 1.5982089583333305
        },
        {
          "midi": 83,
          "time": 48.22662495833333,
          "velocity": 0.5039370078740157,
          "duration": 1.4839236250000027
        },
        {
          "midi": 74,
          "time": 49.71412,
          "velocity": 0.5039370078740157,
          "duration": 1.7124942916666654
        },
        {
          "midi": 78,
          "time": 49.826619625,
          "velocity": 0.5039370078740157,
          "duration": 1.5982089583333305
        },
        {
          "midi": 81,
          "time": 49.940904958333334,
          "velocity": 0.5039370078740157,
          "duration": 1.4839236249999956
        },
        {
          "midi": 78,
          "time": 51.4284,
          "velocity": 0.5039370078740157,
          "duration": 0.20178504166666045
        },
        {
          "midi": 76,
          "time": 51.642685,
          "velocity": 0.5039370078740157,
          "duration": 0.20178504166666755
        },
        {
          "midi": 71,
          "time": 51.856970000000004,
          "velocity": 0.5039370078740157,
          "duration": 2.033921791666664
        },
        {
          "midi": 76,
          "time": 53.99982,
          "velocity": 0.5039370078740157,
          "duration": 0.42678429166667087
        },
        {
          "midi": 79,
          "time": 54.42839,
          "velocity": 0.5039370078740157,
          "duration": 0.42678429166667087
        },
        {
          "midi": 81,
          "time": 54.85696,
          "velocity": 0.5039370078740157,
          "duration": 0.8553542916666714
        },
        {
          "midi": 76,
          "time": 55.7141,
          "velocity": 0.5039370078740157,
          "duration": 2.4410632916666657
        },
        {
          "midi": 79,
          "time": 58.28552,
          "velocity": 0.5039370078740157,
          "duration": 1.7124942916666726
        },
        {
          "midi": 78,
          "time": 59.9998,
          "velocity": 0.5039370078740157,
          "duration": 0.42678429166667087
        },
        {
          "midi": 79,
          "time": 60.42837,
          "velocity": 0.5039370078740157,
          "duration": 0.42678429166667087
        },
        {
          "midi": 81,
          "time": 60.85694,
          "velocity": 0.5039370078740157,
          "duration": 0.42678429166667087
        },
        {
          "midi": 74,
          "time": 61.28551,
          "velocity": 0.5039370078740157,
          "duration": 0.42678429166666376
        },
        {
          "midi": 76,
          "time": 61.71408,
          "velocity": 0.5039370078740157,
          "duration": 3.255346291666662
        },
        {
          "midi": 76,
          "time": 67.28549,
          "velocity": 0.5039370078740157,
          "duration": 0.426784291666678
        },
        {
          "midi": 78,
          "time": 67.71406,
          "velocity": 0.5039370078740157,
          "duration": 0.42678429166666376
        },
        {
          "midi": 79,
          "time": 68.14263,
          "velocity": 0.5039370078740157,
          "duration": 0.426784291666678
        },
        {
          "midi": 81,
          "time": 68.5712,
          "velocity": 0.5039370078740157,
          "duration": 0.42678429166666376
        },
        {
          "midi": 83,
          "time": 68.99977,
          "velocity": 0.5039370078740157,
          "duration": 0.426784291666678
        },
        {
          "midi": 76,
          "time": 69.42834,
          "velocity": 0.5039370078740157,
          "duration": 0.42678429166666376
        },
        {
          "midi": 79,
          "time": 69.85691,
          "velocity": 0.5039370078740157,
          "duration": 0.8553542916666714
        },
        {
          "midi": 78,
          "time": 70.71405,
          "velocity": 0.5039370078740157,
          "duration": 1.2839242916666649
        },
        {
          "midi": 76,
          "time": 71.99976,
          "velocity": 0.5039370078740157,
          "duration": 3.255346291666669
        },
        {
          "midi": 79,
          "time": 75.42832,
          "velocity": 0.5039370078740157,
          "duration": 0.42678429166666376
        },
        {
          "midi": 81,
          "time": 75.85689,
          "velocity": 0.5039370078740157,
          "duration": 0.42678429166666376
        },
        {
          "midi": 79,
          "time": 76.28546,
          "velocity": 0.5039370078740157,
          "duration": 0.42678429166666376
        },
        {
          "midi": 78,
          "time": 76.71403000000001,
          "velocity": 0.5039370078740157,
          "duration": 1.2839242916666649
        },
        {
          "midi": 83,
          "time": 77.99974,
          "velocity": 0.5039370078740157,
          "duration": 0.8553542916666714
        },
        {
          "midi": 74,
          "time": 78.85688,
          "velocity": 0.5039370078740157,
          "duration": 1.7124942916666726
        },
        {
          "midi": 79,
          "time": 78.969379625,
          "velocity": 0.5039370078740157,
          "duration": 1.5982089583333305
        },
        {
          "midi": 83,
          "time": 79.08366495833333,
          "velocity": 0.5039370078740157,
          "duration": 1.4839236250000027
        },
        {
          "midi": 74,
          "time": 80.57116,
          "velocity": 0.5039370078740157,
          "duration": 1.7124942916666583
        },
        {
          "midi": 78,
          "time": 80.68365962499999,
          "velocity": 0.5039370078740157,
          "duration": 1.5982089583333448
        },
        {
          "midi": 81,
          "time": 80.79794495833333,
          "velocity": 0.5039370078740157,
          "duration": 1.4839236250000027
        },
        {
          "midi": 81,
          "time": 82.28544,
          "velocity": 0.5039370078740157,
          "duration": 0.426784291666678
        },
        {
          "midi": 83,
          "time": 82.71401,
          "velocity": 0.5039370078740157,
          "duration": 0.42678429166666376
        },
        {
          "midi": 76,
          "time": 83.14258,
          "velocity": 0.5039370078740157,
          "duration": 0.426784291666678
        },
        {
          "midi": 79,
          "time": 83.57115,
          "velocity": 0.5039370078740157,
          "duration": 0.8553542916666714
        },
        {
          "midi": 78,
          "time": 84.42829,
          "velocity": 0.5039370078740157,
          "duration": 1.2839242916666649
        },
        {
          "midi": 76,
          "time": 85.714,
          "velocity": 0.5039370078740157,
          "duration": 3.255346291666669
        },
        {
          "midi": 79,
          "time": 89.14256,
          "velocity": 0.5039370078740157,
          "duration": 0.42678429166666376
        },
        {
          "midi": 81,
          "time": 89.57113,
          "velocity": 0.5039370078740157,
          "duration": 0.426784291666678
        },
        {
          "midi": 79,
          "time": 89.9997,
          "velocity": 0.5039370078740157,
          "duration": 0.42678429166666376
        },
        {
          "midi": 78,
          "time": 90.42827,
          "velocity": 0.5039370078740157,
          "duration": 1.2839242916666649
        },
        {
          "midi": 71,
          "time": 91.71398,
          "velocity": 0.5039370078740157,
          "duration": 0.8553542916666572
        },
        {
          "midi": 76,
          "time": 92.57112000000001,
          "velocity": 0.5039370078740157,
          "duration": 2.4410632916666515
        },
        {
          "midi": 72,
          "time": 95.14254,
          "velocity": 0.5039370078740157,
          "duration": 0.4053557916666648
        },
        {
          "midi": 76,
          "time": 95.57111,
          "velocity": 0.5039370078740157,
          "duration": 0.4053557916666648
        },
        {
          "midi": 81,
          "time": 95.99968,
          "velocity": 0.5039370078740157,
          "duration": 1.7124942916666726
        },
        {
          "midi": 84,
          "time": 96.112179625,
          "velocity": 0.5039370078740157,
          "duration": 1.5982089583333448
        },
        {
          "midi": 88,
          "time": 96.22646495833334,
          "velocity": 0.5039370078740157,
          "duration": 1.4839236250000027
        },
        {
          "midi": 93,
          "time": 96.34253600000001,
          "velocity": 0.5039370078740157,
          "duration": 1.3696382916666607
        },
        {
          "midi": 69,
          "time": 97.71396,
          "velocity": 0.5039370078740157,
          "duration": 0.8553542916666714
        },
        {
          "midi": 78,
          "time": 97.71396,
          "velocity": 0.5039370078740157,
          "duration": 0.8553542916666714
        },
        {
          "midi": 74,
          "time": 98.5711,
          "velocity": 0.44881889763779526,
          "duration": 0.8553542916666714
        },
        {
          "midi": 67,
          "time": 99.42824,
          "velocity": 0.3858267716535433,
          "duration": 0.8571400000000011
        },
        {
          "midi": 71,
          "time": 99.540739625,
          "velocity": 0.3858267716535433,
          "duration": 3.312488958333333
        },
        {
          "midi": 76,
          "time": 99.65323925,
          "velocity": 0.3858267716535433,
          "duration": 3.1999893333333347
        },
        {
          "midi": 67,
          "time": 106.28536,
          "velocity": 0.6299212598425197,
          "duration": 0.21249929166667414
        },
        {
          "midi": 71,
          "time": 106.33357412500001,
          "velocity": 0.6299212598425197,
          "duration": 0.16249945833332902
        },
        {
          "midi": 78,
          "time": 106.38357395833333,
          "velocity": 0.6299212598425197,
          "duration": 0.11249962500001232
        },
        {
          "midi": 76,
          "time": 106.499645,
          "velocity": 0.6299212598425197,
          "duration": 0.20178504166666755
        },
        {
          "midi": 71,
          "time": 106.71393,
          "velocity": 0.6299212598425197,
          "duration": 2.033921791666671
        },
        {
          "midi": 67,
          "time": 108.85678,
          "velocity": 0.6299212598425197,
          "duration": 0.42678429166666376
        },
        {
          "midi": 71,
          "time": 108.969279625,
          "velocity": 0.6299212598425197,
          "duration": 0.31249895833333596
        },
        {
          "midi": 76,
          "time": 109.08356495833334,
          "velocity": 0.6299212598425197,
          "duration": 0.19821362499999395
        },
        {
          "midi": 79,
          "time": 109.28535000000001,
          "velocity": 0.6299212598425197,
          "duration": 0.4053557916666506
        },
        {
          "midi": 72,
          "time": 109.71392,
          "velocity": 0.6299212598425197,
          "duration": 0.8553542916666714
        },
        {
          "midi": 76,
          "time": 109.826419625,
          "velocity": 0.6299212598425197,
          "duration": 0.7410689583333436
        },
        {
          "midi": 81,
          "time": 109.94070495833333,
          "velocity": 0.6299212598425197,
          "duration": 0.6267836250000158
        },
        {
          "midi": 72,
          "time": 110.57106,
          "velocity": 0.6299212598425197,
          "duration": 1.2196387916666822
        },
        {
          "midi": 76,
          "time": 110.57106,
          "velocity": 0.6299212598425197,
          "duration": 1.2196387916666822
        },
        {
          "midi": 72,
          "time": 111.85677,
          "velocity": 0.6299212598425197,
          "duration": 0.426784291666678
        },
        {
          "midi": 76,
          "time": 112.28534,
          "velocity": 0.6299212598425197,
          "duration": 0.42678429166666376
        },
        {
          "midi": 81,
          "time": 112.71391,
          "velocity": 0.6299212598425197,
          "duration": 0.426784291666678
        },
        {
          "midi": 69,
          "time": 113.14248,
          "velocity": 0.6299212598425197,
          "duration": 1.7124942916666583
        },
        {
          "midi": 74,
          "time": 113.25497962499999,
          "velocity": 0.6299212598425197,
          "duration": 1.5982089583333448
        },
        {
          "midi": 79,
          "time": 113.36926495833332,
          "velocity": 0.6299212598425197,
          "duration": 1.483923625000017
        },
        {
          "midi": 69,
          "time": 114.85676000000001,
          "velocity": 0.6299212598425197,
          "duration": 0.42678429166666376
        },
        {
          "midi": 74,
          "time": 114.96925962499999,
          "velocity": 0.6299212598425197,
          "duration": 0.3124989583333502
        },
        {
          "midi": 78,
          "time": 115.08354495833332,
          "velocity": 0.6299212598425197,
          "duration": 0.19821362500002238
        },
        {
          "midi": 79,
          "time": 115.28533,
          "velocity": 0.6299212598425197,
          "duration": 0.42678429166666376
        },
        {
          "midi": 81,
          "time": 115.7139,
          "velocity": 0.6299212598425197,
          "duration": 0.426784291666678
        },
        {
          "midi": 74,
          "time": 116.14247,
          "velocity": 0.6299212598425197,
          "duration": 0.42678429166666376
        },
        {
          "midi": 74,
          "time": 116.57104,
          "velocity": 0.6299212598425197,
          "duration": 1.7124942916666726
        },
        {
          "midi": 79,
          "time": 116.683539625,
          "velocity": 0.6299212598425197,
          "duration": 1.5982089583333448
        },
        {
          "midi": 83,
          "time": 116.79782495833332,
          "velocity": 0.6299212598425197,
          "duration": 1.483923625000017
        },
        {
          "midi": 74,
          "time": 118.28532,
          "velocity": 0.6299212598425197,
          "duration": 1.7124942916666726
        },
        {
          "midi": 78,
          "time": 118.397819625,
          "velocity": 0.6299212598425197,
          "duration": 1.5982089583333448
        },
        {
          "midi": 81,
          "time": 118.51210495833332,
          "velocity": 0.6299212598425197,
          "duration": 1.483923625000017
        },
        {
          "midi": 67,
          "time": 119.9996,
          "velocity": 0.6299212598425197,
          "duration": 0.21249929166667414
        },
        {
          "midi": 71,
          "time": 120.047814125,
          "velocity": 0.6299212598425197,
          "duration": 0.16249945833334323
        },
        {
          "midi": 78,
          "time": 120.09781395833335,
          "velocity": 0.6299212598425197,
          "duration": 0.1124996249999981
        },
        {
          "midi": 76,
          "time": 120.213885,
          "velocity": 0.6299212598425197,
          "duration": 0.20178504166668176
        },
        {
          "midi": 71,
          "time": 120.42817000000001,
          "velocity": 0.6299212598425197,
          "duration": 2.033921791666657
        },
        {
          "midi": 67,
          "time": 122.57102,
          "velocity": 0.6299212598425197,
          "duration": 0.42678429166666376
        },
        {
          "midi": 71,
          "time": 122.683519625,
          "velocity": 0.6299212598425197,
          "duration": 0.31249895833333596
        },
        {
          "midi": 76,
          "time": 122.79780495833333,
          "velocity": 0.6299212598425197,
          "duration": 0.19821362500000816
        },
        {
          "midi": 79,
          "time": 122.99959,
          "velocity": 0.6299212598425197,
          "duration": 0.4053557916666648
        },
        {
          "midi": 72,
          "time": 123.42816,
          "velocity": 0.6299212598425197,
          "duration": 0.8553542916666714
        },
        {
          "midi": 76,
          "time": 123.540659625,
          "velocity": 0.6299212598425197,
          "duration": 0.7410689583333294
        },
        {
          "midi": 81,
          "time": 123.65494495833332,
          "velocity": 0.6299212598425197,
          "duration": 0.6267836250000158
        },
        {
          "midi": 72,
          "time": 124.2853,
          "velocity": 0.6299212598425197,
          "duration": 1.219638791666668
        },
        {
          "midi": 76,
          "time": 124.2853,
          "velocity": 0.6299212598425197,
          "duration": 1.219638791666668
        },
        {
          "midi": 72,
          "time": 125.57101,
          "velocity": 0.6299212598425197,
          "duration": 0.42678429166666376
        },
        {
          "midi": 76,
          "time": 125.99958000000001,
          "velocity": 0.6299212598425197,
          "duration": 0.42678429166666376
        },
        {
          "midi": 81,
          "time": 126.42815,
          "velocity": 0.6299212598425197,
          "duration": 0.42678429166666376
        },
        {
          "midi": 69,
          "time": 126.85672,
          "velocity": 0.6299212598425197,
          "duration": 1.7124942916666726
        },
        {
          "midi": 74,
          "time": 126.969219625,
          "velocity": 0.6299212598425197,
          "duration": 1.5982089583333448
        },
        {
          "midi": 79,
          "time": 127.08350495833332,
          "velocity": 0.6299212598425197,
          "duration": 1.483923625000017
        },
        {
          "midi": 69,
          "time": 128.571,
          "velocity": 0.6299212598425197,
          "duration": 0.426784291666678
        },
        {
          "midi": 74,
          "time": 128.683499625,
          "velocity": 0.6299212598425197,
          "duration": 0.3124989583333502
        },
        {
          "midi": 78,
          "time": 128.79778495833332,
          "velocity": 0.6299212598425197,
          "duration": 0.19821362500002238
        },
        {
          "midi": 79,
          "time": 128.99957,
          "velocity": 0.6299212598425197,
          "duration": 0.426784291666678
        },
        {
          "midi": 81,
          "time": 129.42814,
          "velocity": 0.6299212598425197,
          "duration": 0.42678429166664955
        },
        {
          "midi": 74,
          "time": 129.85671,
          "velocity": 0.6299212598425197,
          "duration": 0.426784291666678
        },
        {
          "midi": 67,
          "time": 130.28528,
          "velocity": 0.6299212598425197,
          "duration": 0.8571400000000153
        },
        {
          "midi": 71,
          "time": 130.397779625,
          "velocity": 0.6299212598425197,
          "duration": 3.312488958333347
        },
        {
          "midi": 76,
          "time": 130.51027925,
          "velocity": 0.6299212598425197,
          "duration": 3.199989333333349
        },
        {
          "midi": 76,
          "time": 135.85669000000001,
          "velocity": 0.6299212598425197,
          "duration": 0.42678429166664955
        },
        {
          "midi": 88,
          "time": 135.85669000000001,
          "velocity": 0.6299212598425197,
          "duration": 0.42678429166664955
        },
        {
          "midi": 78,
          "time": 136.28526,
          "velocity": 0.6299212598425197,
          "duration": 0.426784291666678
        },
        {
          "midi": 90,
          "time": 136.28526,
          "velocity": 0.6299212598425197,
          "duration": 0.426784291666678
        },
        {
          "midi": 79,
          "time": 136.71383,
          "velocity": 0.6299212598425197,
          "duration": 0.426784291666678
        },
        {
          "midi": 91,
          "time": 136.71383,
          "velocity": 0.6299212598425197,
          "duration": 0.426784291666678
        },
        {
          "midi": 81,
          "time": 137.1424,
          "velocity": 0.6299212598425197,
          "duration": 0.42678429166664955
        },
        {
          "midi": 93,
          "time": 137.1424,
          "velocity": 0.6299212598425197,
          "duration": 0.42678429166664955
        },
        {
          "midi": 83,
          "time": 137.57097,
          "velocity": 0.6299212598425197,
          "duration": 0.426784291666678
        },
        {
          "midi": 95,
          "time": 137.57097,
          "velocity": 0.6299212598425197,
          "duration": 0.426784291666678
        },
        {
          "midi": 76,
          "time": 137.99954,
          "velocity": 0.6299212598425197,
          "duration": 0.426784291666678
        },
        {
          "midi": 88,
          "time": 137.99954,
          "velocity": 0.6299212598425197,
          "duration": 0.426784291666678
        },
        {
          "midi": 79,
          "time": 138.42811,
          "velocity": 0.6299212598425197,
          "duration": 1.2839242916666649
        },
        {
          "midi": 91,
          "time": 138.42811,
          "velocity": 0.6299212598425197,
          "duration": 1.2839242916666649
        },
        {
          "midi": 78,
          "time": 139.71382,
          "velocity": 0.6299212598425197,
          "duration": 0.8124972916666593
        },
        {
          "midi": 90,
          "time": 139.71382,
          "velocity": 0.6299212598425197,
          "duration": 0.8124972916666593
        },
        {
          "midi": 76,
          "time": 140.57096,
          "velocity": 0.6299212598425197,
          "duration": 3.2553462916666547
        },
        {
          "midi": 88,
          "time": 140.57096,
          "velocity": 0.6299212598425197,
          "duration": 3.2553462916666547
        },
        {
          "midi": 79,
          "time": 143.99952,
          "velocity": 0.6299212598425197,
          "duration": 0.426784291666678
        },
        {
          "midi": 72,
          "time": 143.99952,
          "velocity": 0.6299212598425197,
          "duration": 1.2839242916666933
        },
        {
          "midi": 76,
          "time": 143.99952,
          "velocity": 0.6299212598425197,
          "duration": 1.2839242916666933
        },
        {
          "midi": 81,
          "time": 144.42809,
          "velocity": 0.6299212598425197,
          "duration": 0.426784291666678
        },
        {
          "midi": 79,
          "time": 144.85666,
          "velocity": 0.6299212598425197,
          "duration": 0.426784291666678
        },
        {
          "midi": 78,
          "time": 145.28523,
          "velocity": 0.6299212598425197,
          "duration": 1.2839242916666649
        },
        {
          "midi": 74,
          "time": 145.28523,
          "velocity": 0.6299212598425197,
          "duration": 2.141064291666652
        },
        {
          "midi": 83,
          "time": 146.57094,
          "velocity": 0.6299212598425197,
          "duration": 0.8553542916666572
        },
        {
          "midi": 74,
          "time": 147.42808,
          "velocity": 0.6299212598425197,
          "duration": 1.7124942916666726
        },
        {
          "midi": 79,
          "time": 147.540579625,
          "velocity": 0.6299212598425197,
          "duration": 1.5982089583333448
        },
        {
          "midi": 83,
          "time": 147.65486495833332,
          "velocity": 0.6299212598425197,
          "duration": 1.483923625000017
        },
        {
          "midi": 74,
          "time": 149.14236,
          "velocity": 0.5118110236220472,
          "duration": 1.7124942916666726
        },
        {
          "midi": 78,
          "time": 149.254859625,
          "velocity": 0.5118110236220472,
          "duration": 1.5982089583333448
        },
        {
          "midi": 81,
          "time": 149.36914495833332,
          "velocity": 0.5118110236220472,
          "duration": 1.483923625000017
        },
        {
          "midi": 81,
          "time": 150.85664,
          "velocity": 0.3858267716535433,
          "duration": 0.426784291666678
        },
        {
          "midi": 93,
          "time": 150.85664,
          "velocity": 0.3858267716535433,
          "duration": 0.426784291666678
        },
        {
          "midi": 83,
          "time": 151.28521,
          "velocity": 0.3858267716535433,
          "duration": 0.426784291666678
        },
        {
          "midi": 95,
          "time": 151.28521,
          "velocity": 0.3858267716535433,
          "duration": 0.426784291666678
        },
        {
          "midi": 76,
          "time": 151.71378,
          "velocity": 0.3858267716535433,
          "duration": 0.42678429166664955
        },
        {
          "midi": 88,
          "time": 151.71378,
          "velocity": 0.3858267716535433,
          "duration": 0.42678429166664955
        },
        {
          "midi": 79,
          "time": 152.14235,
          "velocity": 0.3858267716535433,
          "duration": 1.2839242916666649
        },
        {
          "midi": 91,
          "time": 152.14235,
          "velocity": 0.3858267716535433,
          "duration": 1.2839242916666649
        },
        {
          "midi": 78,
          "time": 153.42806000000002,
          "velocity": 0.3858267716535433,
          "duration": 0.8553542916666572
        },
        {
          "midi": 90,
          "time": 153.42806000000002,
          "velocity": 0.3858267716535433,
          "duration": 0.8553542916666572
        },
        {
          "midi": 76,
          "time": 154.2852,
          "velocity": 0.3858267716535433,
          "duration": 3.255346291666683
        },
        {
          "midi": 88,
          "time": 154.2852,
          "velocity": 0.3858267716535433,
          "duration": 3.255346291666683
        },
        {
          "midi": 79,
          "time": 157.71376,
          "velocity": 0.3858267716535433,
          "duration": 0.42678429166664955
        },
        {
          "midi": 72,
          "time": 157.71376,
          "velocity": 0.3858267716535433,
          "duration": 1.2839242916666649
        },
        {
          "midi": 76,
          "time": 157.71376,
          "velocity": 0.3858267716535433,
          "duration": 1.2839242916666649
        },
        {
          "midi": 81,
          "time": 158.14233000000002,
          "velocity": 0.3858267716535433,
          "duration": 0.42678429166664955
        },
        {
          "midi": 79,
          "time": 158.5709,
          "velocity": 0.3858267716535433,
          "duration": 0.426784291666678
        },
        {
          "midi": 78,
          "time": 158.99947,
          "velocity": 0.3858267716535433,
          "duration": 1.2839242916666649
        },
        {
          "midi": 74,
          "time": 158.99947,
          "velocity": 0.3858267716535433,
          "duration": 2.14106429166668
        },
        {
          "midi": 71,
          "time": 160.28518,
          "velocity": 0.3858267716535433,
          "duration": 0.8124972916666593
        },
        {
          "midi": 69,
          "time": 161.14232,
          "velocity": 0.3858267716535433,
          "duration": 2.1428499999999815
        },
        {
          "midi": 72,
          "time": 161.254819625,
          "velocity": 0.3858267716535433,
          "duration": 2.4553489583333317
        },
        {
          "midi": 76,
          "time": 161.36731924999998,
          "velocity": 0.3858267716535433,
          "duration": 2.342849333333362
        },
        {
          "midi": 72,
          "time": 163.71374,
          "velocity": 0.3858267716535433,
          "duration": 0.4053557916666648
        },
        {
          "midi": 76,
          "time": 164.14231,
          "velocity": 0.3858267716535433,
          "duration": 0.4053557916666648
        },
        {
          "midi": 81,
          "time": 164.57088,
          "velocity": 0.3858267716535433,
          "duration": 1.7124942916666726
        },
        {
          "midi": 84,
          "time": 164.683379625,
          "velocity": 0.3858267716535433,
          "duration": 1.5982089583333448
        },
        {
          "midi": 88,
          "time": 164.7976649583333,
          "velocity": 0.3858267716535433,
          "duration": 1.483923625000017
        },
        {
          "midi": 93,
          "time": 164.913736,
          "velocity": 0.3858267716535433,
          "duration": 1.3696382916666607
        },
        {
          "midi": 69,
          "time": 166.28516,
          "velocity": 0.3858267716535433,
          "duration": 0.8553542916666856
        },
        {
          "midi": 78,
          "time": 166.28516,
          "velocity": 0.3858267716535433,
          "duration": 0.8553542916666856
        },
        {
          "midi": 74,
          "time": 167.1423,
          "velocity": 0.3858267716535433,
          "duration": 0.8124972916666593
        },
        {
          "midi": 67,
          "time": 167.99944,
          "velocity": 0.3858267716535433,
          "duration": 1.2839242916666649
        },
        {
          "midi": 71,
          "time": 168.111939625,
          "velocity": 0.3858267716535433,
          "duration": 1.169638958333337
        },
        {
          "midi": 76,
          "time": 168.22622495833332,
          "velocity": 0.3858267716535433,
          "duration": 1.0553536250000093
        },
        {
          "midi": 67,
          "time": 169.28515000000002,
          "velocity": 0.33858267716535434,
          "duration": 0.42678429166664955
        },
        {
          "midi": 71,
          "time": 169.71372,
          "velocity": 0.3228346456692913,
          "duration": 0.426784291666678
        },
        {
          "midi": 76,
          "time": 170.14229,
          "velocity": 0.30708661417322836,
          "duration": 0.426784291666678
        },
        {
          "midi": 79,
          "time": 170.57086,
          "velocity": 0.29133858267716534,
          "duration": 0.42678429166664955
        },
        {
          "midi": 83,
          "time": 170.99943,
          "velocity": 0.2755905511811024,
          "duration": 0.4053557916666648
        },
        {
          "midi": 76,
          "time": 171.428,
          "velocity": 0.25984251968503935,
          "duration": 3.426774291666675
        },
        {
          "midi": 79,
          "time": 171.540499625,
          "velocity": 0.25984251968503935,
          "duration": 3.312488958333347
        },
        {
          "midi": 83,
          "time": 171.65299925,
          "velocity": 0.25984251968503935,
          "duration": 3.199989333333349
        },
        {
          "midi": 88,
          "time": 171.770856,
          "velocity": 0.25984251968503935,
          "duration": 3.083918291666663
        }
      ],
      "myInstrument": -5,
      "theirInstrument": 0
    },
    {
      "side": "left",
      "notes": [
        {
          "midi": 52,
          "time": 0,
          "velocity": 0.3858267716535433,
          "duration": 0.4053557916666667
        },
        {
          "midi": 59,
          "time": 0.42857,
          "velocity": 0.3858267716535433,
          "duration": 0.4053557916666667
        },
        {
          "midi": 67,
          "time": 0.85714,
          "velocity": 0.3858267716535433,
          "duration": 0.4053557916666666
        },
        {
          "midi": 66,
          "time": 1.28571,
          "velocity": 0.3858267716535433,
          "duration": 0.8124972916666668
        },
        {
          "midi": 62,
          "time": 2.14285,
          "velocity": 0.3858267716535433,
          "duration": 1.2196387916666667
        },
        {
          "midi": 52,
          "time": 3.42856,
          "velocity": 0.3858267716535433,
          "duration": 0.4053557916666666
        },
        {
          "midi": 59,
          "time": 3.85713,
          "velocity": 0.3858267716535433,
          "duration": 0.40535579166666613
        },
        {
          "midi": 67,
          "time": 4.2857,
          "velocity": 0.3858267716535433,
          "duration": 0.4053557916666666
        },
        {
          "midi": 66,
          "time": 4.71427,
          "velocity": 0.3858267716535433,
          "duration": 0.8124972916666673
        },
        {
          "midi": 59,
          "time": 5.57141,
          "velocity": 0.3858267716535433,
          "duration": 1.2196387916666662
        },
        {
          "midi": 52,
          "time": 6.85712,
          "velocity": 0.5039370078740157,
          "duration": 0.4053557916666666
        },
        {
          "midi": 59,
          "time": 7.28569,
          "velocity": 0.5039370078740157,
          "duration": 0.4053557916666666
        },
        {
          "midi": 67,
          "time": 7.71426,
          "velocity": 0.5039370078740157,
          "duration": 0.4053557916666657
        },
        {
          "midi": 66,
          "time": 8.14283,
          "velocity": 0.5039370078740157,
          "duration": 0.8124972916666664
        },
        {
          "midi": 62,
          "time": 8.99997,
          "velocity": 0.5039370078740157,
          "duration": 1.219638791666668
        },
        {
          "midi": 48,
          "time": 10.28568,
          "velocity": 0.5039370078740157,
          "duration": 0.4053557916666666
        },
        {
          "midi": 55,
          "time": 10.71425,
          "velocity": 0.5039370078740157,
          "duration": 0.4053557916666666
        },
        {
          "midi": 60,
          "time": 11.14282,
          "velocity": 0.5039370078740157,
          "duration": 0.4053557916666666
        },
        {
          "midi": 62,
          "time": 11.571390000000001,
          "velocity": 0.5039370078740157,
          "duration": 0.4053557916666666
        },
        {
          "midi": 64,
          "time": 11.99996,
          "velocity": 0.5039370078740157,
          "duration": 1.6267802916666678
        },
        {
          "midi": 50,
          "time": 13.71424,
          "velocity": 0.5039370078740157,
          "duration": 0.4053557916666666
        },
        {
          "midi": 57,
          "time": 14.14281,
          "velocity": 0.5039370078740157,
          "duration": 0.4053557916666666
        },
        {
          "midi": 62,
          "time": 14.57138,
          "velocity": 0.5039370078740157,
          "duration": 0.4053557916666666
        },
        {
          "midi": 67,
          "time": 14.99995,
          "velocity": 0.5039370078740157,
          "duration": 0.4053557916666666
        },
        {
          "midi": 66,
          "time": 15.42852,
          "velocity": 0.5039370078740157,
          "duration": 0.4053557916666666
        },
        {
          "midi": 64,
          "time": 15.85709,
          "velocity": 0.5039370078740157,
          "duration": 0.40535579166666835
        },
        {
          "midi": 62,
          "time": 16.28566,
          "velocity": 0.5039370078740157,
          "duration": 0.40535579166666835
        },
        {
          "midi": 57,
          "time": 16.71423,
          "velocity": 0.5039370078740157,
          "duration": 0.4053557916666648
        },
        {
          "midi": 55,
          "time": 17.1428,
          "velocity": 0.5039370078740157,
          "duration": 0.4053557916666648
        },
        {
          "midi": 62,
          "time": 17.57137,
          "velocity": 0.5039370078740157,
          "duration": 0.4053557916666648
        },
        {
          "midi": 71,
          "time": 17.99994,
          "velocity": 0.5039370078740157,
          "duration": 0.40535579166666835
        },
        {
          "midi": 62,
          "time": 18.42851,
          "velocity": 0.5039370078740157,
          "duration": 0.40535579166666835
        },
        {
          "midi": 54,
          "time": 18.85708,
          "velocity": 0.5039370078740157,
          "duration": 0.40535579166666835
        },
        {
          "midi": 62,
          "time": 19.28565,
          "velocity": 0.5039370078740157,
          "duration": 0.4053557916666648
        },
        {
          "midi": 69,
          "time": 19.71422,
          "velocity": 0.5039370078740157,
          "duration": 0.4053557916666648
        },
        {
          "midi": 62,
          "time": 20.14279,
          "velocity": 0.5039370078740157,
          "duration": 0.4053557916666648
        },
        {
          "midi": 52,
          "time": 20.57136,
          "velocity": 0.5039370078740157,
          "duration": 0.40535579166666835
        },
        {
          "midi": 59,
          "time": 20.99993,
          "velocity": 0.5039370078740157,
          "duration": 0.40535579166666835
        },
        {
          "midi": 67,
          "time": 21.4285,
          "velocity": 0.5039370078740157,
          "duration": 0.40535579166666835
        },
        {
          "midi": 66,
          "time": 21.85707,
          "velocity": 0.5039370078740157,
          "duration": 0.8124972916666664
        },
        {
          "midi": 62,
          "time": 22.71421,
          "velocity": 0.5039370078740157,
          "duration": 1.2196387916666644
        },
        {
          "midi": 48,
          "time": 23.99992,
          "velocity": 0.5039370078740157,
          "duration": 0.40535579166666835
        },
        {
          "midi": 55,
          "time": 24.42849,
          "velocity": 0.5039370078740157,
          "duration": 0.40535579166666835
        },
        {
          "midi": 60,
          "time": 24.85706,
          "velocity": 0.5039370078740157,
          "duration": 0.4053557916666648
        },
        {
          "midi": 62,
          "time": 25.28563,
          "velocity": 0.5039370078740157,
          "duration": 0.4053557916666648
        },
        {
          "midi": 64,
          "time": 25.7142,
          "velocity": 0.5039370078740157,
          "duration": 1.626780291666666
        },
        {
          "midi": 50,
          "time": 27.42848,
          "velocity": 0.5039370078740157,
          "duration": 0.40535579166666835
        },
        {
          "midi": 57,
          "time": 27.85705,
          "velocity": 0.5039370078740157,
          "duration": 0.40535579166666835
        },
        {
          "midi": 62,
          "time": 28.28562,
          "velocity": 0.5039370078740157,
          "duration": 0.40535579166666835
        },
        {
          "midi": 64,
          "time": 28.714190000000002,
          "velocity": 0.5039370078740157,
          "duration": 0.40535579166666835
        },
        {
          "midi": 66,
          "time": 29.14276,
          "velocity": 0.5039370078740157,
          "duration": 0.4053557916666719
        },
        {
          "midi": 64,
          "time": 29.57133,
          "velocity": 0.5039370078740157,
          "duration": 0.4053557916666719
        },
        {
          "midi": 62,
          "time": 29.9999,
          "velocity": 0.5039370078740157,
          "duration": 0.40535579166666835
        },
        {
          "midi": 57,
          "time": 30.42847,
          "velocity": 0.5039370078740157,
          "duration": 0.40535579166666835
        },
        {
          "midi": 52,
          "time": 30.85704,
          "velocity": 0.5039370078740157,
          "duration": 0.40535579166666835
        },
        {
          "midi": 59,
          "time": 31.285610000000002,
          "velocity": 0.5039370078740157,
          "duration": 0.40535579166666835
        },
        {
          "midi": 67,
          "time": 31.71418,
          "velocity": 0.5039370078740157,
          "duration": 0.4053557916666719
        },
        {
          "midi": 66,
          "time": 32.14275,
          "velocity": 0.5039370078740157,
          "duration": 0.8124972916666664
        },
        {
          "midi": 62,
          "time": 32.99989,
          "velocity": 0.5039370078740157,
          "duration": 1.219638791666668
        },
        {
          "midi": 52,
          "time": 34.2856,
          "velocity": 0.5039370078740157,
          "duration": 0.4053557916666648
        },
        {
          "midi": 59,
          "time": 34.71417,
          "velocity": 0.5039370078740157,
          "duration": 0.4053557916666648
        },
        {
          "midi": 67,
          "time": 35.14274,
          "velocity": 0.5039370078740157,
          "duration": 0.4053557916666648
        },
        {
          "midi": 66,
          "time": 35.571310000000004,
          "velocity": 0.5039370078740157,
          "duration": 0.8124972916666593
        },
        {
          "midi": 59,
          "time": 36.42845,
          "velocity": 0.5039370078740157,
          "duration": 1.219638791666668
        },
        {
          "midi": 52,
          "time": 37.71416,
          "velocity": 0.5039370078740157,
          "duration": 0.4053557916666719
        },
        {
          "midi": 59,
          "time": 38.14273,
          "velocity": 0.5039370078740157,
          "duration": 0.4053557916666719
        },
        {
          "midi": 67,
          "time": 38.5713,
          "velocity": 0.5039370078740157,
          "duration": 0.4053557916666719
        },
        {
          "midi": 66,
          "time": 38.99987,
          "velocity": 0.5039370078740157,
          "duration": 0.8124972916666664
        },
        {
          "midi": 62,
          "time": 39.85701,
          "velocity": 0.5039370078740157,
          "duration": 1.219638791666661
        },
        {
          "midi": 48,
          "time": 41.14272,
          "velocity": 0.5039370078740157,
          "duration": 0.4053557916666719
        },
        {
          "midi": 55,
          "time": 41.57129,
          "velocity": 0.5039370078740157,
          "duration": 0.4053557916666719
        },
        {
          "midi": 60,
          "time": 41.99986,
          "velocity": 0.5039370078740157,
          "duration": 0.4053557916666719
        },
        {
          "midi": 62,
          "time": 42.42843,
          "velocity": 0.5039370078740157,
          "duration": 0.4053557916666719
        },
        {
          "midi": 64,
          "time": 42.857,
          "velocity": 0.5039370078740157,
          "duration": 1.6267802916666696
        },
        {
          "midi": 50,
          "time": 44.57128,
          "velocity": 0.5039370078740157,
          "duration": 0.4053557916666719
        },
        {
          "midi": 57,
          "time": 44.99985,
          "velocity": 0.5039370078740157,
          "duration": 0.4053557916666648
        },
        {
          "midi": 62,
          "time": 45.42842,
          "velocity": 0.5039370078740157,
          "duration": 0.4053557916666648
        },
        {
          "midi": 67,
          "time": 45.85699,
          "velocity": 0.5039370078740157,
          "duration": 0.4053557916666648
        },
        {
          "midi": 66,
          "time": 46.285560000000004,
          "velocity": 0.5039370078740157,
          "duration": 0.4053557916666648
        },
        {
          "midi": 64,
          "time": 46.71413,
          "velocity": 0.5039370078740157,
          "duration": 0.4053557916666719
        },
        {
          "midi": 62,
          "time": 47.1427,
          "velocity": 0.5039370078740157,
          "duration": 0.4053557916666719
        },
        {
          "midi": 57,
          "time": 47.57127,
          "velocity": 0.5039370078740157,
          "duration": 0.4053557916666719
        },
        {
          "midi": 55,
          "time": 47.99984,
          "velocity": 0.5039370078740157,
          "duration": 0.4053557916666719
        },
        {
          "midi": 62,
          "time": 48.42841,
          "velocity": 0.5039370078740157,
          "duration": 0.4053557916666719
        },
        {
          "midi": 71,
          "time": 48.85698,
          "velocity": 0.5039370078740157,
          "duration": 0.4053557916666719
        },
        {
          "midi": 62,
          "time": 49.28555,
          "velocity": 0.5039370078740157,
          "duration": 0.4053557916666719
        },
        {
          "midi": 54,
          "time": 49.71412,
          "velocity": 0.5039370078740157,
          "duration": 0.4053557916666719
        },
        {
          "midi": 62,
          "time": 50.14269,
          "velocity": 0.5039370078740157,
          "duration": 0.4053557916666719
        },
        {
          "midi": 69,
          "time": 50.57126,
          "velocity": 0.5039370078740157,
          "duration": 0.4053557916666648
        },
        {
          "midi": 62,
          "time": 50.99983,
          "velocity": 0.5039370078740157,
          "duration": 0.4053557916666648
        },
        {
          "midi": 52,
          "time": 51.4284,
          "velocity": 0.5039370078740157,
          "duration": 0.4053557916666648
        },
        {
          "midi": 59,
          "time": 51.856970000000004,
          "velocity": 0.5039370078740157,
          "duration": 0.4053557916666648
        },
        {
          "midi": 67,
          "time": 52.28554,
          "velocity": 0.5039370078740157,
          "duration": 0.4053557916666719
        },
        {
          "midi": 66,
          "time": 52.71411,
          "velocity": 0.5039370078740157,
          "duration": 0.8124972916666664
        },
        {
          "midi": 62,
          "time": 53.57125,
          "velocity": 0.5039370078740157,
          "duration": 1.219638791666668
        },
        {
          "midi": 48,
          "time": 54.85696,
          "velocity": 0.5039370078740157,
          "duration": 0.4053557916666648
        },
        {
          "midi": 55,
          "time": 55.28553,
          "velocity": 0.5039370078740157,
          "duration": 0.4053557916666648
        },
        {
          "midi": 60,
          "time": 55.7141,
          "velocity": 0.5039370078740157,
          "duration": 0.4053557916666648
        },
        {
          "midi": 62,
          "time": 56.14267,
          "velocity": 0.5039370078740157,
          "duration": 0.4053557916666648
        },
        {
          "midi": 64,
          "time": 56.57124,
          "velocity": 0.5039370078740157,
          "duration": 1.6267802916666554
        },
        {
          "midi": 50,
          "time": 58.28552,
          "velocity": 0.5039370078740157,
          "duration": 0.4053557916666648
        },
        {
          "midi": 57,
          "time": 58.71409,
          "velocity": 0.5039370078740157,
          "duration": 0.4053557916666648
        },
        {
          "midi": 62,
          "time": 59.14266,
          "velocity": 0.5039370078740157,
          "duration": 0.4053557916666648
        },
        {
          "midi": 64,
          "time": 59.57123,
          "velocity": 0.5039370078740157,
          "duration": 0.4053557916666648
        },
        {
          "midi": 66,
          "time": 59.9998,
          "velocity": 0.5039370078740157,
          "duration": 0.4053557916666648
        },
        {
          "midi": 64,
          "time": 60.42837,
          "velocity": 0.5039370078740157,
          "duration": 0.4053557916666648
        },
        {
          "midi": 62,
          "time": 60.85694,
          "velocity": 0.5039370078740157,
          "duration": 0.4053557916666648
        },
        {
          "midi": 57,
          "time": 61.28551,
          "velocity": 0.5039370078740157,
          "duration": 0.4053557916666648
        },
        {
          "midi": 52,
          "time": 61.71408,
          "velocity": 0.5039370078740157,
          "duration": 0.4053557916666648
        },
        {
          "midi": 59,
          "time": 62.14265,
          "velocity": 0.5039370078740157,
          "duration": 0.4053557916666577
        },
        {
          "midi": 67,
          "time": 62.571220000000004,
          "velocity": 0.5039370078740157,
          "duration": 0.4053557916666577
        },
        {
          "midi": 66,
          "time": 62.999790000000004,
          "velocity": 0.5039370078740157,
          "duration": 0.8124972916666664
        },
        {
          "midi": 62,
          "time": 63.85693,
          "velocity": 0.5039370078740157,
          "duration": 1.219638791666675
        },
        {
          "midi": 52,
          "time": 65.14264,
          "velocity": 0.5039370078740157,
          "duration": 0.4053557916666648
        },
        {
          "midi": 59,
          "time": 65.57121000000001,
          "velocity": 0.5039370078740157,
          "duration": 0.4053557916666506
        },
        {
          "midi": 67,
          "time": 65.99978,
          "velocity": 0.5039370078740157,
          "duration": 0.4053557916666648
        },
        {
          "midi": 66,
          "time": 66.42835,
          "velocity": 0.5039370078740157,
          "duration": 0.8124972916666735
        },
        {
          "midi": 59,
          "time": 67.28549,
          "velocity": 0.5039370078740157,
          "duration": 1.219638791666668
        },
        {
          "midi": 48,
          "time": 68.5712,
          "velocity": 0.5039370078740157,
          "duration": 0.4053557916666648
        },
        {
          "midi": 55,
          "time": 68.99977,
          "velocity": 0.5039370078740157,
          "duration": 0.4053557916666648
        },
        {
          "midi": 64,
          "time": 69.42834,
          "velocity": 0.5039370078740157,
          "duration": 0.4053557916666648
        },
        {
          "midi": 55,
          "time": 69.85691,
          "velocity": 0.5039370078740157,
          "duration": 0.4053557916666648
        },
        {
          "midi": 47,
          "time": 70.28548,
          "velocity": 0.5039370078740157,
          "duration": 0.4053557916666506
        },
        {
          "midi": 54,
          "time": 70.71405,
          "velocity": 0.5039370078740157,
          "duration": 0.4053557916666648
        },
        {
          "midi": 62,
          "time": 71.14262000000001,
          "velocity": 0.5039370078740157,
          "duration": 0.4053557916666506
        },
        {
          "midi": 59,
          "time": 71.57119,
          "velocity": 0.5039370078740157,
          "duration": 0.4053557916666648
        },
        {
          "midi": 52,
          "time": 71.99976,
          "velocity": 0.5039370078740157,
          "duration": 0.4053557916666648
        },
        {
          "midi": 59,
          "time": 72.42833,
          "velocity": 0.5039370078740157,
          "duration": 0.4053557916666648
        },
        {
          "midi": 64,
          "time": 72.8569,
          "velocity": 0.5039370078740157,
          "duration": 0.4053557916666648
        },
        {
          "midi": 66,
          "time": 73.28547,
          "velocity": 0.5039370078740157,
          "duration": 0.4053557916666648
        },
        {
          "midi": 67,
          "time": 73.71404,
          "velocity": 0.5039370078740157,
          "duration": 0.4053557916666648
        },
        {
          "midi": 66,
          "time": 74.14261,
          "velocity": 0.5039370078740157,
          "duration": 0.4053557916666648
        },
        {
          "midi": 64,
          "time": 74.57118,
          "velocity": 0.5039370078740157,
          "duration": 0.4053557916666648
        },
        {
          "midi": 62,
          "time": 74.99975,
          "velocity": 0.5039370078740157,
          "duration": 0.4053557916666648
        },
        {
          "midi": 48,
          "time": 75.42832,
          "velocity": 0.5039370078740157,
          "duration": 0.4053557916666648
        },
        {
          "midi": 55,
          "time": 75.85689,
          "velocity": 0.5039370078740157,
          "duration": 0.4053557916666506
        },
        {
          "midi": 64,
          "time": 76.28546,
          "velocity": 0.5039370078740157,
          "duration": 0.4053557916666648
        },
        {
          "midi": 55,
          "time": 76.71403000000001,
          "velocity": 0.5039370078740157,
          "duration": 0.4053557916666506
        },
        {
          "midi": 50,
          "time": 77.1426,
          "velocity": 0.5039370078740157,
          "duration": 0.4053557916666648
        },
        {
          "midi": 57,
          "time": 77.57117,
          "velocity": 0.5039370078740157,
          "duration": 0.4053557916666648
        },
        {
          "midi": 66,
          "time": 77.99974,
          "velocity": 0.5039370078740157,
          "duration": 0.4053557916666648
        },
        {
          "midi": 57,
          "time": 78.42831,
          "velocity": 0.5039370078740157,
          "duration": 0.4053557916666648
        },
        {
          "midi": 55,
          "time": 78.85688,
          "velocity": 0.5039370078740157,
          "duration": 0.4053557916666648
        },
        {
          "midi": 62,
          "time": 79.28545,
          "velocity": 0.5039370078740157,
          "duration": 0.4053557916666648
        },
        {
          "midi": 71,
          "time": 79.71402,
          "velocity": 0.5039370078740157,
          "duration": 0.4053557916666648
        },
        {
          "midi": 62,
          "time": 80.14259,
          "velocity": 0.5039370078740157,
          "duration": 0.4053557916666648
        },
        {
          "midi": 54,
          "time": 80.57116,
          "velocity": 0.5039370078740157,
          "duration": 0.4053557916666648
        },
        {
          "midi": 62,
          "time": 80.99973,
          "velocity": 0.5039370078740157,
          "duration": 0.4053557916666648
        },
        {
          "midi": 69,
          "time": 81.42830000000001,
          "velocity": 0.5039370078740157,
          "duration": 0.4053557916666506
        },
        {
          "midi": 62,
          "time": 81.85687,
          "velocity": 0.5039370078740157,
          "duration": 0.4053557916666648
        },
        {
          "midi": 48,
          "time": 82.28544,
          "velocity": 0.5039370078740157,
          "duration": 0.4053557916666648
        },
        {
          "midi": 55,
          "time": 82.71401,
          "velocity": 0.5039370078740157,
          "duration": 0.4053557916666648
        },
        {
          "midi": 64,
          "time": 83.14258,
          "velocity": 0.5039370078740157,
          "duration": 0.4053557916666648
        },
        {
          "midi": 55,
          "time": 83.57115,
          "velocity": 0.5039370078740157,
          "duration": 0.4053557916666648
        },
        {
          "midi": 47,
          "time": 83.99972,
          "velocity": 0.5039370078740157,
          "duration": 0.4053557916666648
        },
        {
          "midi": 54,
          "time": 84.42829,
          "velocity": 0.5039370078740157,
          "duration": 0.4053557916666648
        },
        {
          "midi": 62,
          "time": 84.85686,
          "velocity": 0.5039370078740157,
          "duration": 0.4053557916666648
        },
        {
          "midi": 54,
          "time": 85.28543,
          "velocity": 0.5039370078740157,
          "duration": 0.4053557916666648
        },
        {
          "midi": 52,
          "time": 85.714,
          "velocity": 0.5039370078740157,
          "duration": 0.4053557916666648
        },
        {
          "midi": 59,
          "time": 86.14257,
          "velocity": 0.5039370078740157,
          "duration": 0.4053557916666648
        },
        {
          "midi": 64,
          "time": 86.57114,
          "velocity": 0.5039370078740157,
          "duration": 0.4053557916666648
        },
        {
          "midi": 66,
          "time": 86.99971000000001,
          "velocity": 0.5039370078740157,
          "duration": 0.4053557916666506
        },
        {
          "midi": 67,
          "time": 87.42828,
          "velocity": 0.5039370078740157,
          "duration": 0.4053557916666648
        },
        {
          "midi": 66,
          "time": 87.85685,
          "velocity": 0.5039370078740157,
          "duration": 0.4053557916666648
        },
        {
          "midi": 64,
          "time": 88.28542,
          "velocity": 0.5039370078740157,
          "duration": 0.4053557916666648
        },
        {
          "midi": 62,
          "time": 88.71399,
          "velocity": 0.5039370078740157,
          "duration": 0.4053557916666648
        },
        {
          "midi": 48,
          "time": 89.14256,
          "velocity": 0.5039370078740157,
          "duration": 0.4053557916666648
        },
        {
          "midi": 55,
          "time": 89.57113,
          "velocity": 0.5039370078740157,
          "duration": 0.4053557916666648
        },
        {
          "midi": 64,
          "time": 89.9997,
          "velocity": 0.5039370078740157,
          "duration": 0.4053557916666648
        },
        {
          "midi": 55,
          "time": 90.42827,
          "velocity": 0.5039370078740157,
          "duration": 0.4053557916666648
        },
        {
          "midi": 47,
          "time": 90.85684,
          "velocity": 0.5039370078740157,
          "duration": 0.4053557916666648
        },
        {
          "midi": 54,
          "time": 91.28541,
          "velocity": 0.5039370078740157,
          "duration": 0.4053557916666648
        },
        {
          "midi": 62,
          "time": 91.71398,
          "velocity": 0.5039370078740157,
          "duration": 0.4053557916666648
        },
        {
          "midi": 54,
          "time": 92.14255,
          "velocity": 0.5039370078740157,
          "duration": 0.4053557916666648
        },
        {
          "midi": 45,
          "time": 92.57112000000001,
          "velocity": 0.5039370078740157,
          "duration": 0.4053557916666506
        },
        {
          "midi": 52,
          "time": 92.99969,
          "velocity": 0.5039370078740157,
          "duration": 0.4053557916666648
        },
        {
          "midi": 57,
          "time": 93.42826,
          "velocity": 0.5039370078740157,
          "duration": 0.4053557916666648
        },
        {
          "midi": 60,
          "time": 93.85683,
          "velocity": 0.5039370078740157,
          "duration": 0.4053557916666648
        },
        {
          "midi": 64,
          "time": 94.2854,
          "velocity": 0.5039370078740157,
          "duration": 0.4053557916666648
        },
        {
          "midi": 69,
          "time": 94.71397,
          "velocity": 0.5039370078740157,
          "duration": 0.4053557916666648
        },
        {
          "midi": 50,
          "time": 97.71396,
          "velocity": 0.5039370078740157,
          "duration": 0.8124972916666735
        },
        {
          "midi": 54,
          "time": 98.5711,
          "velocity": 0.44881889763779526,
          "duration": 0.8124972916666735
        },
        {
          "midi": 52,
          "time": 99.42824,
          "velocity": 0.3858267716535433,
          "duration": 0.4053557916666648
        },
        {
          "midi": 59,
          "time": 99.85681,
          "velocity": 0.3858267716535433,
          "duration": 0.4053557916666648
        },
        {
          "midi": 67,
          "time": 100.28538,
          "velocity": 0.3858267716535433,
          "duration": 2.5696342916666595
        },
        {
          "midi": 66,
          "time": 100.71395,
          "velocity": 0.3858267716535433,
          "duration": 0.8124972916666735
        },
        {
          "midi": 62,
          "time": 101.57109,
          "velocity": 0.3858267716535433,
          "duration": 1.219638791666668
        },
        {
          "midi": 52,
          "time": 102.8568,
          "velocity": 0.3858267716535433,
          "duration": 0.4053557916666648
        },
        {
          "midi": 59,
          "time": 103.28537,
          "velocity": 0.4094488188976378,
          "duration": 0.4053557916666648
        },
        {
          "midi": 67,
          "time": 103.71394000000001,
          "velocity": 0.4409448818897638,
          "duration": 0.4053557916666506
        },
        {
          "midi": 66,
          "time": 104.14251,
          "velocity": 0.47244094488188976,
          "duration": 0.8124972916666735
        },
        {
          "midi": 59,
          "time": 104.99965,
          "velocity": 0.5354330708661418,
          "duration": 1.219638791666668
        },
        {
          "midi": 52,
          "time": 106.28536,
          "velocity": 0.6299212598425197,
          "duration": 0.4053557916666648
        },
        {
          "midi": 59,
          "time": 106.71393,
          "velocity": 0.6299212598425197,
          "duration": 0.4053557916666648
        },
        {
          "midi": 67,
          "time": 107.1425,
          "velocity": 0.6299212598425197,
          "duration": 0.4053557916666648
        },
        {
          "midi": 66,
          "time": 107.57107,
          "velocity": 0.6299212598425197,
          "duration": 0.8124972916666735
        },
        {
          "midi": 62,
          "time": 108.42821,
          "velocity": 0.6299212598425197,
          "duration": 1.2196387916666538
        },
        {
          "midi": 48,
          "time": 109.71392,
          "velocity": 0.6299212598425197,
          "duration": 0.4053557916666648
        },
        {
          "midi": 55,
          "time": 110.14249,
          "velocity": 0.6299212598425197,
          "duration": 0.4053557916666648
        },
        {
          "midi": 60,
          "time": 110.57106,
          "velocity": 0.6299212598425197,
          "duration": 0.4053557916666648
        },
        {
          "midi": 62,
          "time": 110.99963,
          "velocity": 0.6299212598425197,
          "duration": 0.4053557916666648
        },
        {
          "midi": 64,
          "time": 111.4282,
          "velocity": 0.6299212598425197,
          "duration": 1.6267802916666767
        },
        {
          "midi": 50,
          "time": 113.14248,
          "velocity": 0.6299212598425197,
          "duration": 0.4053557916666648
        },
        {
          "midi": 57,
          "time": 113.57105,
          "velocity": 0.6299212598425197,
          "duration": 0.4053557916666648
        },
        {
          "midi": 62,
          "time": 113.99962000000001,
          "velocity": 0.6299212598425197,
          "duration": 0.4053557916666648
        },
        {
          "midi": 67,
          "time": 114.42819,
          "velocity": 0.6299212598425197,
          "duration": 0.4053557916666648
        },
        {
          "midi": 66,
          "time": 114.85676000000001,
          "velocity": 0.6299212598425197,
          "duration": 0.4053557916666506
        },
        {
          "midi": 64,
          "time": 115.28533,
          "velocity": 0.6299212598425197,
          "duration": 0.4053557916666648
        },
        {
          "midi": 62,
          "time": 115.7139,
          "velocity": 0.6299212598425197,
          "duration": 0.4053557916666648
        },
        {
          "midi": 57,
          "time": 116.14247,
          "velocity": 0.6299212598425197,
          "duration": 0.4053557916666648
        },
        {
          "midi": 55,
          "time": 116.57104,
          "velocity": 0.6299212598425197,
          "duration": 0.4053557916666648
        },
        {
          "midi": 62,
          "time": 116.99961,
          "velocity": 0.6299212598425197,
          "duration": 0.4053557916666648
        },
        {
          "midi": 71,
          "time": 117.42818,
          "velocity": 0.6299212598425197,
          "duration": 0.4053557916666648
        },
        {
          "midi": 62,
          "time": 117.85675,
          "velocity": 0.6299212598425197,
          "duration": 0.4053557916666648
        },
        {
          "midi": 54,
          "time": 118.28532,
          "velocity": 0.6299212598425197,
          "duration": 0.4053557916666648
        },
        {
          "midi": 62,
          "time": 118.71389,
          "velocity": 0.6299212598425197,
          "duration": 0.4053557916666648
        },
        {
          "midi": 69,
          "time": 119.14246,
          "velocity": 0.6299212598425197,
          "duration": 0.4053557916666648
        },
        {
          "midi": 62,
          "time": 119.57103000000001,
          "velocity": 0.6299212598425197,
          "duration": 0.4053557916666648
        },
        {
          "midi": 52,
          "time": 119.9996,
          "velocity": 0.6299212598425197,
          "duration": 0.4053557916666648
        },
        {
          "midi": 59,
          "time": 120.42817000000001,
          "velocity": 0.6299212598425197,
          "duration": 0.4053557916666506
        },
        {
          "midi": 67,
          "time": 120.85674,
          "velocity": 0.6299212598425197,
          "duration": 0.4053557916666648
        },
        {
          "midi": 66,
          "time": 121.28531,
          "velocity": 0.6299212598425197,
          "duration": 0.8124972916666593
        },
        {
          "midi": 62,
          "time": 122.14245,
          "velocity": 0.6299212598425197,
          "duration": 1.2196387916666822
        },
        {
          "midi": 48,
          "time": 123.42816,
          "velocity": 0.6299212598425197,
          "duration": 0.4053557916666648
        },
        {
          "midi": 55,
          "time": 123.85673,
          "velocity": 0.6299212598425197,
          "duration": 0.4053557916666648
        },
        {
          "midi": 60,
          "time": 124.2853,
          "velocity": 0.6299212598425197,
          "duration": 0.4053557916666648
        },
        {
          "midi": 62,
          "time": 124.71387,
          "velocity": 0.6299212598425197,
          "duration": 0.4053557916666648
        },
        {
          "midi": 64,
          "time": 125.14244000000001,
          "velocity": 0.6299212598425197,
          "duration": 1.6267802916666625
        },
        {
          "midi": 50,
          "time": 126.85672,
          "velocity": 0.6299212598425197,
          "duration": 0.4053557916666648
        },
        {
          "midi": 57,
          "time": 127.28529,
          "velocity": 0.6299212598425197,
          "duration": 0.4053557916666648
        },
        {
          "midi": 62,
          "time": 127.71386,
          "velocity": 0.6299212598425197,
          "duration": 0.405355791666679
        },
        {
          "midi": 64,
          "time": 128.14243,
          "velocity": 0.6299212598425197,
          "duration": 0.4053557916666648
        },
        {
          "midi": 66,
          "time": 128.571,
          "velocity": 0.6299212598425197,
          "duration": 0.4053557916666648
        },
        {
          "midi": 64,
          "time": 128.99957,
          "velocity": 0.6299212598425197,
          "duration": 0.4053557916666648
        },
        {
          "midi": 62,
          "time": 129.42814,
          "velocity": 0.6299212598425197,
          "duration": 0.4053557916666648
        },
        {
          "midi": 57,
          "time": 129.85671,
          "velocity": 0.6299212598425197,
          "duration": 0.4053557916666648
        },
        {
          "midi": 52,
          "time": 130.28528,
          "velocity": 0.6299212598425197,
          "duration": 0.4053557916666648
        },
        {
          "midi": 59,
          "time": 130.71385,
          "velocity": 0.6299212598425197,
          "duration": 0.4053557916666648
        },
        {
          "midi": 67,
          "time": 131.14242000000002,
          "velocity": 0.6299212598425197,
          "duration": 2.5696342916666595
        },
        {
          "midi": 66,
          "time": 131.57099,
          "velocity": 0.6299212598425197,
          "duration": 0.8124972916666593
        },
        {
          "midi": 62,
          "time": 132.42813,
          "velocity": 0.6299212598425197,
          "duration": 1.2196387916666822
        },
        {
          "midi": 52,
          "time": 133.71384,
          "velocity": 0.6299212598425197,
          "duration": 0.4053557916666648
        },
        {
          "midi": 59,
          "time": 134.14241,
          "velocity": 0.6299212598425197,
          "duration": 0.4053557916666648
        },
        {
          "midi": 67,
          "time": 134.57098,
          "velocity": 0.6299212598425197,
          "duration": 0.4053557916666648
        },
        {
          "midi": 66,
          "time": 134.99955,
          "velocity": 0.6299212598425197,
          "duration": 0.8124972916666593
        },
        {
          "midi": 59,
          "time": 135.85669000000001,
          "velocity": 0.6299212598425197,
          "duration": 1.2196387916666538
        },
        {
          "midi": 48,
          "time": 137.1424,
          "velocity": 0.6299212598425197,
          "duration": 0.4053557916666648
        },
        {
          "midi": 55,
          "time": 137.57097,
          "velocity": 0.6299212598425197,
          "duration": 0.4053557916666648
        },
        {
          "midi": 64,
          "time": 137.99954,
          "velocity": 0.6299212598425197,
          "duration": 0.4053557916666648
        },
        {
          "midi": 55,
          "time": 138.42811,
          "velocity": 0.6299212598425197,
          "duration": 0.4053557916666648
        },
        {
          "midi": 47,
          "time": 138.85668,
          "velocity": 0.6299212598425197,
          "duration": 0.4053557916666648
        },
        {
          "midi": 54,
          "time": 139.28525,
          "velocity": 0.6299212598425197,
          "duration": 0.4053557916666648
        },
        {
          "midi": 62,
          "time": 139.71382,
          "velocity": 0.6299212598425197,
          "duration": 0.4053557916666648
        },
        {
          "midi": 59,
          "time": 140.14239,
          "velocity": 0.6299212598425197,
          "duration": 0.4053557916666648
        },
        {
          "midi": 52,
          "time": 140.57096,
          "velocity": 0.6299212598425197,
          "duration": 0.4053557916666648
        },
        {
          "midi": 59,
          "time": 140.99953,
          "velocity": 0.6299212598425197,
          "duration": 0.4053557916666648
        },
        {
          "midi": 64,
          "time": 141.4281,
          "velocity": 0.6299212598425197,
          "duration": 0.4053557916666648
        },
        {
          "midi": 66,
          "time": 141.85667,
          "velocity": 0.6299212598425197,
          "duration": 0.4053557916666648
        },
        {
          "midi": 67,
          "time": 142.28524000000002,
          "velocity": 0.6299212598425197,
          "duration": 0.4053557916666364
        },
        {
          "midi": 66,
          "time": 142.71381,
          "velocity": 0.6299212598425197,
          "duration": 0.4053557916666648
        },
        {
          "midi": 64,
          "time": 143.14238,
          "velocity": 0.6299212598425197,
          "duration": 0.4053557916666648
        },
        {
          "midi": 62,
          "time": 143.57095,
          "velocity": 0.6299212598425197,
          "duration": 0.4053557916666648
        },
        {
          "midi": 48,
          "time": 143.99952,
          "velocity": 0.6299212598425197,
          "duration": 0.4053557916666648
        },
        {
          "midi": 55,
          "time": 144.42809,
          "velocity": 0.6299212598425197,
          "duration": 0.4053557916666648
        },
        {
          "midi": 64,
          "time": 144.85666,
          "velocity": 0.6299212598425197,
          "duration": 0.4053557916666648
        },
        {
          "midi": 55,
          "time": 145.28523,
          "velocity": 0.6299212598425197,
          "duration": 0.4053557916666648
        },
        {
          "midi": 50,
          "time": 145.7138,
          "velocity": 0.6299212598425197,
          "duration": 0.4053557916666648
        },
        {
          "midi": 57,
          "time": 146.14237,
          "velocity": 0.6299212598425197,
          "duration": 0.4053557916666648
        },
        {
          "midi": 66,
          "time": 146.57094,
          "velocity": 0.6299212598425197,
          "duration": 0.4053557916666648
        },
        {
          "midi": 57,
          "time": 146.99951000000001,
          "velocity": 0.6299212598425197,
          "duration": 0.4053557916666648
        },
        {
          "midi": 55,
          "time": 147.42808,
          "velocity": 0.6299212598425197,
          "duration": 0.4053557916666648
        },
        {
          "midi": 62,
          "time": 147.85665,
          "velocity": 0.6062992125984252,
          "duration": 0.4053557916666648
        },
        {
          "midi": 71,
          "time": 148.28522,
          "velocity": 0.5748031496062992,
          "duration": 0.4053557916666648
        },
        {
          "midi": 62,
          "time": 148.71379,
          "velocity": 0.5433070866141733,
          "duration": 0.4053557916666648
        },
        {
          "midi": 54,
          "time": 149.14236,
          "velocity": 0.5118110236220472,
          "duration": 0.4053557916666648
        },
        {
          "midi": 62,
          "time": 149.57093,
          "velocity": 0.48031496062992124,
          "duration": 0.4053557916666648
        },
        {
          "midi": 69,
          "time": 149.9995,
          "velocity": 0.44881889763779526,
          "duration": 0.4053557916666648
        },
        {
          "midi": 62,
          "time": 150.42807,
          "velocity": 0.41732283464566927,
          "duration": 0.4053557916666648
        },
        {
          "midi": 48,
          "time": 150.85664,
          "velocity": 0.3858267716535433,
          "duration": 0.4053557916666648
        },
        {
          "midi": 55,
          "time": 151.28521,
          "velocity": 0.3858267716535433,
          "duration": 0.4053557916666648
        },
        {
          "midi": 64,
          "time": 151.71378,
          "velocity": 0.3858267716535433,
          "duration": 0.4053557916666648
        },
        {
          "midi": 55,
          "time": 152.14235,
          "velocity": 0.3858267716535433,
          "duration": 0.4053557916666648
        },
        {
          "midi": 47,
          "time": 152.57092,
          "velocity": 0.3858267716535433,
          "duration": 0.4053557916666648
        },
        {
          "midi": 54,
          "time": 152.99949,
          "velocity": 0.3858267716535433,
          "duration": 0.4053557916666648
        },
        {
          "midi": 62,
          "time": 153.42806000000002,
          "velocity": 0.3858267716535433,
          "duration": 0.4053557916666364
        },
        {
          "midi": 54,
          "time": 153.85663,
          "velocity": 0.3858267716535433,
          "duration": 0.4053557916666648
        },
        {
          "midi": 52,
          "time": 154.2852,
          "velocity": 0.3858267716535433,
          "duration": 0.4053557916666648
        },
        {
          "midi": 59,
          "time": 154.71377,
          "velocity": 0.3858267716535433,
          "duration": 0.4053557916666648
        },
        {
          "midi": 64,
          "time": 155.14234,
          "velocity": 0.3858267716535433,
          "duration": 0.4053557916666648
        },
        {
          "midi": 66,
          "time": 155.57091,
          "velocity": 0.3858267716535433,
          "duration": 0.4053557916666648
        },
        {
          "midi": 67,
          "time": 155.99948,
          "velocity": 0.3858267716535433,
          "duration": 0.4053557916666648
        },
        {
          "midi": 66,
          "time": 156.42805,
          "velocity": 0.3858267716535433,
          "duration": 0.4053557916666648
        },
        {
          "midi": 64,
          "time": 156.85662,
          "velocity": 0.3858267716535433,
          "duration": 0.4053557916666648
        },
        {
          "midi": 62,
          "time": 157.28519,
          "velocity": 0.3858267716535433,
          "duration": 0.4053557916666648
        },
        {
          "midi": 48,
          "time": 157.71376,
          "velocity": 0.3858267716535433,
          "duration": 0.4053557916666648
        },
        {
          "midi": 55,
          "time": 158.14233000000002,
          "velocity": 0.3858267716535433,
          "duration": 0.4053557916666364
        },
        {
          "midi": 64,
          "time": 158.5709,
          "velocity": 0.3858267716535433,
          "duration": 0.4053557916666648
        },
        {
          "midi": 55,
          "time": 158.99947,
          "velocity": 0.3858267716535433,
          "duration": 0.4053557916666648
        },
        {
          "midi": 47,
          "time": 159.42804,
          "velocity": 0.3858267716535433,
          "duration": 0.4053557916666648
        },
        {
          "midi": 54,
          "time": 159.85661,
          "velocity": 0.3858267716535433,
          "duration": 0.4053557916666648
        },
        {
          "midi": 62,
          "time": 160.28518,
          "velocity": 0.3858267716535433,
          "duration": 0.4053557916666648
        },
        {
          "midi": 54,
          "time": 160.71375,
          "velocity": 0.3858267716535433,
          "duration": 0.4053557916666648
        },
        {
          "midi": 45,
          "time": 161.14232,
          "velocity": 0.3858267716535433,
          "duration": 0.4053557916666648
        },
        {
          "midi": 52,
          "time": 161.57089,
          "velocity": 0.3858267716535433,
          "duration": 0.4053557916666648
        },
        {
          "midi": 57,
          "time": 161.99946,
          "velocity": 0.3858267716535433,
          "duration": 0.4053557916666648
        },
        {
          "midi": 60,
          "time": 162.42803,
          "velocity": 0.3858267716535433,
          "duration": 0.4053557916666648
        },
        {
          "midi": 64,
          "time": 162.85660000000001,
          "velocity": 0.3858267716535433,
          "duration": 0.4053557916666648
        },
        {
          "midi": 69,
          "time": 163.28517,
          "velocity": 0.3858267716535433,
          "duration": 0.426784291666678
        },
        {
          "midi": 50,
          "time": 166.28516,
          "velocity": 0.3858267716535433,
          "duration": 0.8124972916666593
        },
        {
          "midi": 54,
          "time": 167.1423,
          "velocity": 0.3858267716535433,
          "duration": 0.8124972916666593
        },
        {
          "midi": 52,
          "time": 167.99944,
          "velocity": 0.3858267716535433,
          "duration": 0.426784291666678
        },
        {
          "midi": 59,
          "time": 168.42801,
          "velocity": 0.3700787401574803,
          "duration": 0.426784291666678
        },
        {
          "midi": 64,
          "time": 168.85658,
          "velocity": 0.3543307086614173,
          "duration": 0.4053557916666648
        },
        {
          "midi": 28,
          "time": 171.428,
          "velocity": 0.25984251968503935,
          "duration": 3.255346291666683
        },
        {
          "midi": 40,
          "time": 171.428,
          "velocity": 0.25984251968503935,
          "duration": 3.255346291666683
        }
      ],
      "myInstrument": -5,
      "theirInstrument": 0
    }
  ]
}
